<?xml version="1.0" encoding="UTF-8" standalone="no"?>
<!-- Created with Inkscape (http://www.inkscape.org/) -->

<svg
   width="500mm"
   height="350mm"
   viewBox="0 0 500 350"
   version="1.1"
   id="svg1"
   inkscape:version="1.3.2 (091e20e, 2023-11-25, custom)"
   sodipodi:docname="map_mech_first.svg"
   xml:space="preserve"
   xmlns:inkscape="http://www.inkscape.org/namespaces/inkscape"
   xmlns:sodipodi="http://sodipodi.sourceforge.net/DTD/sodipodi-0.dtd"
   xmlns="http://www.w3.org/2000/svg"
   xmlns:svg="http://www.w3.org/2000/svg"><sodipodi:namedview
     id="namedview1"
     pagecolor="#000000"
     bordercolor="#000000"
     borderopacity="0.25"
     inkscape:showpageshadow="2"
     inkscape:pageopacity="0.0"
     inkscape:pagecheckerboard="0"
     inkscape:deskcolor="#d1d1d1"
     inkscape:document-units="mm"
     inkscape:zoom="0.35355339"
     inkscape:cx="739.63369"
     inkscape:cy="827.31493"
     inkscape:window-width="1920"
     inkscape:window-height="991"
     inkscape:window-x="-9"
     inkscape:window-y="-9"
     inkscape:window-maximized="1"
     inkscape:current-layer="layer1" /><defs
     id="defs1" /><g
     inkscape:label="Layer 1"
     inkscape:groupmode="layer"
     id="layer1"><path
       style="fill:#216778;stroke:#303030;stroke-width:0.165;stroke-linejoin:round;paint-order:markers stroke fill"
       d="M 152.66458,66.013541 H 176.2125 V 139.03854 H 152.79687 Z"
       id="path1" /><path
       style="fill:#216778;stroke:#303030;stroke-width:0.165;stroke-linejoin:round;paint-order:markers stroke fill"
       d="M 176.47708,138.94759 V 88.792512 h 81.90508 v 50.138538 z"
       id="path2" /><path
       style="fill:#216778;stroke:#303030;stroke-width:0.130278;stroke-linejoin:round;paint-order:markers stroke fill"
       d="M 258.57132,138.96044 V 66.01648 h 35.10855 v 72.91991 z"
       id="path2-5" /><path
       style="fill:#216778;stroke:#303030;stroke-width:0.116769;stroke-linejoin:round;paint-order:markers stroke fill"
       d="M 293.85136,138.95899 V 66.001532 h 28.19977 v 72.933408 z"
       id="path2-5-6" /><path
       style="fill:#216778;stroke:#303030;stroke-width:0.116769;stroke-linejoin:round;paint-order:markers stroke fill"
       d="M 322.24352,138.95821 V 66.000752 h 28.19977 v 72.933408 z"
       id="path2-5-6-7" /><path
       style="fill:#216778;stroke:#303030;stroke-width:0.0747404;stroke-linejoin:round;paint-order:markers stroke fill"
       d="M 417.22754,121.93614 V 65.587555 h 14.9585 v 56.330015 z"
       id="path2-5-6-7-0" /><path
       style="fill:#216778;stroke:#303030;stroke-width:0.0798032;stroke-linejoin:round;paint-order:markers stroke fill"
       d="M 176.45084,88.570345 V 65.979028 h 42.53595 v 22.583867 z"
       id="path2-9" /><path
       style="fill:#216778;stroke:#303030;stroke-width:0.0767698;stroke-linejoin:round;paint-order:markers stroke fill"
       d="M 219.09891,88.567728 V 65.973377 h 39.35848 v 22.5869 z"
       id="path2-9-1" /><path
       style="fill:#216778;stroke:#303030;stroke-width:0.165;stroke-linejoin:round;paint-order:markers stroke fill"
       d="m 350.95325,66.046614 h 65.5529 v 56.309376 h 15.6219 V 139.4746 H 350.8848 Z"
       id="path3" /><path
       style="fill:#216778;stroke:#303030;stroke-width:0.165;stroke-linejoin:round;paint-order:markers stroke fill"
       d="m 446.95482,113.0951 h 44.99483 v 32.0857 h -44.99483 z"
       id="path4" /><path
       style="fill:#216778;stroke:#303030;stroke-width:0.168471;stroke-linejoin:round;paint-order:markers stroke fill"
       d="m 318.64256,153.27799 h 42.21323 v 35.6541 h -42.21323 z"
       id="path4-4" /><path
       style="fill:#216778;stroke:#303030;stroke-width:0.212436;stroke-linejoin:round;paint-order:markers stroke fill"
       d="M -0.40931886,155.44895 58.914992,123.87572 75.69736,155.28347 16.37305,186.8567 Z"
       id="path4-4-2" /><path
       style="fill:#216778;stroke:#303030;stroke-width:0.165809;stroke-linejoin:round;paint-order:markers stroke fill"
       d="m 318.66393,189.16645 h 42.21589 v 34.53423 h -42.21589 z"
       id="path4-4-4" /><path
       style="fill:#216778;stroke:#303030;stroke-width:0.0786025;stroke-linejoin:round;paint-order:markers stroke fill"
       d="m 361.51427,282.35376 h 14.25726 v 22.97977 h -14.25726 z"
       id="path4-4-4-8" /><path
       style="fill:#216778;stroke:#303030;stroke-width:0.254304;stroke-linejoin:round;paint-order:markers stroke fill"
       d="m 318.70418,223.95593 h 42.12739 v 81.40499 h -42.12739 z"
       id="path4-4-4-0" /><path
       style="fill:#216778;stroke:#303030;stroke-width:0.165;stroke-linejoin:round;paint-order:markers stroke fill"
       d="M 59.465103,123.56042 76.238631,154.62878 126.37839,127.78156 110.5694,95.695853 Z"
       id="path6" /><path
       style="fill:#216778;stroke:#303030;stroke-width:0.165;stroke-linejoin:round;paint-order:markers stroke fill"
       d="m 133.86194,96.818385 v 27.502035 l -7.01582,3.08696 -14.49938,-29.653552 6.82874,-3.274052 z"
       id="path7" /><path
       style="fill:#6600ff;stroke:#303030;stroke-width:0.165;stroke-linejoin:round;paint-order:markers stroke fill"
       d="m 140.4276,111.32344 v 12.5677 h -6.15156 v -12.7 z"
       id="path8" /><path
       style="fill:#6600ff;stroke:#303030;stroke-width:0.234044;stroke-linejoin:round;paint-order:markers stroke fill"
       d="M 468.62178,89.045779 V 99.277202 H 453.41869 V 88.938073 Z"
       id="path8-6" /><path
       style="fill:#6600ff;stroke:#303030;stroke-width:0.165;stroke-linejoin:round;paint-order:markers stroke fill"
       d="m 33.399471,187.89166 5.877573,11.10862 -5.437374,2.87691 -5.939446,-11.22555 z"
       id="path8-9" /><path
       style="fill:#216778;stroke:#303030;stroke-width:0.171896;stroke-linejoin:round;paint-order:markers stroke fill"
       d="m 34.390547,187.48471 20.710588,-11.05881 8.207632,15.39731 -20.824374,11.11957 z"
       id="path9" /><path
       style="fill:#216778;stroke:#303030;stroke-width:0.171896;stroke-linejoin:round;paint-order:markers stroke fill"
       d="m 93.457627,155.52271 20.571423,-11.31558 8.39853,15.29401 -20.68444,11.37776 z"
       id="path9-1" /><path
       style="fill:#216778;stroke:#303030;stroke-width:0.165;stroke-linejoin:round;paint-order:markers stroke fill"
       d="m 55.565333,176.23752 16.697663,-9.21411 8.372219,15.57513 -16.978297,8.93348 z"
       id="path10" /><path
       style="fill:#216778;stroke:#303030;stroke-width:0.165;stroke-linejoin:round;paint-order:markers stroke fill"
       d="m 80.962621,182.45822 9.214117,-5.42557 -8.418991,-15.15418 -9.073801,5.00462 z"
       id="path11" /><path
       style="fill:#216778;stroke:#303030;stroke-width:0.162124;stroke-linejoin:round;paint-order:markers stroke fill"
       d="m 90.454854,176.7208 10.780316,-5.27516 -8.399331,-15.52036 -10.723886,5.72795 z"
       id="path12" /><path
       style="fill:#216778;stroke:#303030;stroke-width:0.165;stroke-linejoin:round;paint-order:markers stroke fill"
       d="m 122.77694,159.35277 -8.51254,-15.34127 6.26747,-3.60146 8.37222,15.34127 z"
       id="path13" /><path
       style="fill:#2ca02c;stroke:#303030;stroke-width:0.165;stroke-linejoin:round;paint-order:markers stroke fill"
       d="M 453.09895,88.833853 V 73.900024 h -6.89247 V 66.042298 H 432.5276 V 139.76693 H 152.26771 v -28.14516 h -11.69396 v 12.4531 h -6.50133 v 0.44052 l -7.14445,3.12585 0.0409,0.0709 -50.823833,27.19724 0.176922,0.30644 -61.074283,32.52763 3.648229,7.20291 14.405828,-7.24968 22.076463,-11.64627 16.744434,-9.23751 9.418595,-5.20212 11.310937,-6.18464 21.108168,-11.64853 6.64165,-3.81193 8.61385,15.70851 5.2586,-1.95131 h 183.72005 v -0.89296 h 42.87903 V 282.1297 H 375.8075 V 153.13207 h 116.23563 v -7.69402 h -45.369 V 98.524218 h 6.52399 v -9.688299 z"
       id="path14" /></g></svg>
