<?xml version="1.0" encoding="UTF-8" standalone="no"?>
<!-- Created with Inkscape (http://www.inkscape.org/) -->

<svg
   width="1500mm"
   height="400mm"
   viewBox="0 0 1500 400"
   version="1.1"
   id="svg1"
   inkscape:version="1.3.2 (091e20e, 2023-11-25, custom)"
   sodipodi:docname="map_ground_floor.svg"
   xml:space="preserve"
   xmlns:inkscape="http://www.inkscape.org/namespaces/inkscape"
   xmlns:sodipodi="http://sodipodi.sourceforge.net/DTD/sodipodi-0.dtd"
   xmlns="http://www.w3.org/2000/svg"
   xmlns:svg="http://www.w3.org/2000/svg"><sodipodi:namedview
     id="namedview1"
     pagecolor="#1e1e1e"
     bordercolor="#000000"
     borderopacity="0.25"
     inkscape:showpageshadow="2"
     inkscape:pageopacity="0.0"
     inkscape:pagecheckerboard="0"
     inkscape:deskcolor="#d1d1d1"
     inkscape:document-units="mm"
     inkscape:zoom="0.25"
     inkscape:cx="2790"
     inkscape:cy="1110"
     inkscape:window-width="1920"
     inkscape:window-height="991"
     inkscape:window-x="-9"
     inkscape:window-y="-9"
     inkscape:window-maximized="1"
     inkscape:current-layer="layer1" /><defs
     id="defs1" /><g
     inkscape:label="Layer 1"
     inkscape:groupmode="layer"
     id="layer1"><path
       style="fill:#ffd42a;fill-opacity:1;stroke:#303030;stroke-width:0.360003;stroke-linejoin:round;stroke-dasharray:none;paint-order:markers stroke fill"
       d="m 770.97773,129.96465 v 9.16166 h 19.17274 v -9.29773 z"
       id="path35-6" /><path
       style="fill:#4d4d4d;fill-opacity:1;stroke:#303030;stroke-width:0.360003;stroke-linejoin:round;stroke-dasharray:none;paint-order:markers stroke fill"
       d="m 864.97062,129.56503 v 9.16166 h 19.17274 v -9.29773 z"
       id="path35-6-1" /><path
       style="fill:#ffd42a;fill-opacity:1;stroke:#303030;stroke-width:0.25036;stroke-linejoin:round;stroke-dasharray:none;paint-order:markers stroke fill"
       d="m 988.16509,131.80543 v 6.87314 h 12.36011 v -6.97522 z"
       id="path35-6-4" /><path
       style="fill:#006680;fill-opacity:1;stroke:#303030;stroke-width:0.138137;stroke-linejoin:round;stroke-dasharray:none;paint-order:markers stroke fill"
       d="M 716.16314,73.755676 H 748.9321 V 123.46478 H 716.32657 V 73.755676 Z"
       id="path55-1-4-84" /><path
       style="fill:#006680;fill-opacity:1;stroke:#303030;stroke-width:0.151326;stroke-linejoin:round;stroke-dasharray:none;paint-order:markers stroke fill"
       d="m 221.15986,53.091547 h 13.22659 V 106.9365 h -13.11451 z"
       id="path27-71" /><path
       style="fill:#006680;fill-opacity:1;stroke:#303030;stroke-width:0.165;stroke-linejoin:round;stroke-dasharray:none;paint-order:markers stroke fill"
       d="m 390.525,113.50625 h 50.79999 V 223.8375 h -50.53541 z"
       id="path5" /><path
       style="fill:#006680;fill-opacity:1;stroke:#303030;stroke-width:0.165;stroke-linejoin:round;stroke-dasharray:none;paint-order:markers stroke fill"
       d="m 313.56061,115.6208 h 28.43747 v 110.94357 h -27.8762 z"
       id="path6" /><path
       style="fill:#006680;fill-opacity:1;stroke:#303030;stroke-width:0.165;stroke-linejoin:round;stroke-dasharray:none;paint-order:markers stroke fill"
       d="m 288.72656,115.82135 h 24.40781 v 23.41563 h -24.40781 z"
       id="path7" /><path
       style="fill:#006680;fill-opacity:1;stroke:#303030;stroke-width:0.165;stroke-linejoin:round;stroke-dasharray:none;paint-order:markers stroke fill"
       d="m 288.59427,139.7 h 24.49861 v 31.84922 h -24.56476 z"
       id="path8" /><path
       style="fill:#006680;fill-opacity:1;stroke:#303030;stroke-width:0.165;stroke-linejoin:round;stroke-dasharray:none;paint-order:markers stroke fill"
       d="m 288.48679,172.01224 h 24.62279 v 22.84061 h -24.71375 z"
       id="path9" /><path
       style="fill:#006680;fill-opacity:1;stroke:#303030;stroke-width:0.165;stroke-linejoin:round;stroke-dasharray:none;paint-order:markers stroke fill"
       d="m 288.32968,195.42786 h 24.78659 v 31.06636 H 288.3504 Z"
       id="path10" /><path
       style="fill:#006680;fill-opacity:1;stroke:#303030;stroke-width:0.165;stroke-linejoin:round;stroke-dasharray:none;paint-order:markers stroke fill"
       d="m 223.6645,117.02396 h 27.31495 v 21.32811 h -27.47268 z"
       id="path11" /><path
       style="fill:#006680;fill-opacity:1;stroke:#303030;stroke-width:0.165;stroke-linejoin:round;stroke-dasharray:none;paint-order:markers stroke fill"
       d="m 223.48196,117.00371 h -21.27415 v 111.86087 h 48.88857 v -90.24942 h -27.89554 z"
       id="path12" /><path
       style="fill:#006680;fill-opacity:1;stroke:#303030;stroke-width:0.165;stroke-linejoin:round;stroke-dasharray:none;paint-order:markers stroke fill"
       d="m 113.24167,172.50833 26.8552,-16.93333 34.13125,56.22396 -27.64896,17.06562 z"
       id="path13" /><path
       style="fill:#006680;fill-opacity:1;stroke:#303030;stroke-width:0.165;stroke-linejoin:round;stroke-dasharray:none;paint-order:markers stroke fill"
       d="m 81.227082,193.01354 31.844628,-19.83959 -8.03213,-12.70416 -31.485414,19.57917 z"
       id="path14" /><path
       style="fill:#006680;fill-opacity:1;stroke:#303030;stroke-width:0.165;stroke-linejoin:round;stroke-dasharray:none;paint-order:markers stroke fill"
       d="m 45.181914,197.75272 21.982916,-13.56393 23.853807,37.979 -22.450639,14.21874 z"
       id="path15" /><path
       style="fill:#006680;fill-opacity:1;stroke:#303030;stroke-width:0.165;stroke-linejoin:round;stroke-dasharray:none;paint-order:markers stroke fill"
       d="m 73.818749,245.00416 22.092708,-13.62604 24.077083,39.6875 -22.092708,14.02292 z"
       id="path16" /><path
       style="fill:#006680;fill-opacity:1;stroke:#303030;stroke-width:0.165;stroke-linejoin:round;stroke-dasharray:none;paint-order:markers stroke fill"
       d="m 125.67708,268.02291 17.59479,-11.1125 -12.83229,-20.6375 L 112.7125,247.65 Z"
       id="path17" /><path
       style="fill:#006680;fill-opacity:1;stroke:#303030;stroke-width:0.165;stroke-linejoin:round;stroke-dasharray:none;paint-order:markers stroke fill"
       d="m 145.55498,228.29495 12.30108,19.27013 -14.17196,9.26089 -12.90912,-20.72007 14.26551,-8.51254 z"
       id="path18" /><path
       style="fill:#006680;fill-opacity:1;stroke:#303030;stroke-width:0.165;stroke-linejoin:round;stroke-dasharray:none;paint-order:markers stroke fill"
       d="m 82.739962,129.51213 6.127154,11.9269 -28.48425,13.93811 -5.846519,-11.97368 z"
       id="path19" /><path
       style="fill:#006680;fill-opacity:1;stroke:#303030;stroke-width:0.165;stroke-linejoin:round;stroke-dasharray:none;paint-order:markers stroke fill"
       d="m 99.68177,121.31146 6.15156,12.17083 -16.801039,7.83828 -6.011696,-11.90198 z"
       id="path20" /><path
       style="fill:#006680;fill-opacity:1;stroke:#303030;stroke-width:0.165;stroke-linejoin:round;stroke-dasharray:none;paint-order:markers stroke fill"
       d="m 106.07928,133.39422 14.40582,-7.0626 -6.2207,-12.11399 -14.312279,6.92228 z"
       id="path21" /><path
       style="fill:#006680;fill-opacity:1;stroke:#303030;stroke-width:0.165;stroke-linejoin:round;stroke-dasharray:none;paint-order:markers stroke fill"
       d="m 120.85928,126.14453 -6.17393,-12.06722 10.33665,-4.8643 6.45456,11.69304 z"
       id="path22" /><path
       style="fill:#006680;fill-opacity:1;stroke:#303030;stroke-width:0.165;stroke-linejoin:round;stroke-dasharray:none;paint-order:markers stroke fill"
       d="M 24.936979,120.71614 64.492187,101.20312 76.66302,125.14792 36.5125,144.85937 Z"
       id="path23" /><path
       style="fill:#006680;fill-opacity:1;stroke:#303030;stroke-width:0.165;stroke-linejoin:round;stroke-dasharray:none;paint-order:markers stroke fill"
       d="M 101.58915,83.909267 113.65637,107.48244 76.799897,124.88169 64.73268,101.02788 101.12143,82.880278 Z"
       id="path24" /><path
       style="fill:#006680;fill-opacity:1;stroke:#303030;stroke-width:0.165;stroke-linejoin:round;stroke-dasharray:none;paint-order:markers stroke fill"
       d="m 117.60729,75.340103 11.64167,24.077083 -15.21354,7.739064 -12.56771,-24.540105 z"
       id="path25" /><path
       style="fill:#006680;fill-opacity:1;stroke:#303030;stroke-width:0.165;stroke-linejoin:round;stroke-dasharray:none;paint-order:markers stroke fill"
       d="M 134.14375,97.366665 V 76.729166 h -9.72344 l -4.6036,2.65789 9.59761,19.765547 z"
       id="path26" /><path
       style="fill:#006680;fill-opacity:1;stroke:#303030;stroke-width:0.165;stroke-linejoin:round;stroke-dasharray:none;paint-order:markers stroke fill"
       d="m 150.13865,68.567998 h 22.07647 v 38.353172 h -21.88938 z"
       id="path27" /><path
       style="fill:#006680;fill-opacity:1;stroke:#303030;stroke-width:0.198865;stroke-linejoin:round;stroke-dasharray:none;paint-order:markers stroke fill"
       d="m 172.43202,68.579742 h 32.09677 v 38.319308 h -31.82476 z"
       id="path27-7" /><path
       style="fill:#006680;fill-opacity:1;stroke:#303030;stroke-width:0.140869;stroke-linejoin:round;stroke-dasharray:none;paint-order:markers stroke fill"
       d="m 204.78752,68.567227 h 16.08133 v 38.377303 h -15.94504 z"
       id="path27-4" /><path
       style="fill:#006680;fill-opacity:1;stroke:#303030;stroke-width:0.165;stroke-linejoin:round;stroke-dasharray:none;paint-order:markers stroke fill"
       d="m 234.67935,53.098101 h 29.77048 v 53.793569 h -29.75615 z"
       id="path28" /><path
       style="fill:#006680;fill-opacity:1;stroke:#303030;stroke-width:0.165;stroke-linejoin:round;stroke-dasharray:none;paint-order:markers stroke fill"
       d="m 264.73631,53.086409 h 110.09582 v 37.334944 h 13.70849 V 106.89167 H 264.68369 Z"
       id="path29" /><path
       style="fill:#006680;fill-opacity:1;stroke:#303030;stroke-width:0.165;stroke-linejoin:round;stroke-dasharray:none;paint-order:markers stroke fill"
       d="m 375.17916,53.048958 h 13.36146 v 36.97552 h -13.4276 z"
       id="path30" /><path
       style="fill:#006680;fill-opacity:1;stroke:#303030;stroke-width:0.165;stroke-linejoin:round;stroke-dasharray:none;paint-order:markers stroke fill"
       d="m 407.66621,57.249133 h 14.59291 v 10.944686 h -14.49938 z"
       id="path31" /><path
       style="fill:#006680;fill-opacity:1;stroke:#303030;stroke-width:0.165;stroke-linejoin:round;stroke-dasharray:none;paint-order:markers stroke fill"
       d="m 423.75584,62.674703 h 15.6219 v 10.851144 h -15.6219 z"
       id="path32" /><path
       style="fill:#006680;fill-opacity:1;stroke:#303030;stroke-width:0.165;stroke-linejoin:round;stroke-dasharray:none;paint-order:markers stroke fill"
       d="M 402.8019,97.753828 V 73.80648 h 36.48228 v 23.853804 z"
       id="path33" /><path
       style="fill:#ffd42a;fill-opacity:1;stroke:#303030;stroke-width:0.165;stroke-linejoin:round;stroke-dasharray:none;paint-order:markers stroke fill"
       d="m 48.683333,145.65312 3.96875,9.06198 5.903515,-2.8112 -4.514453,-9.0289 z"
       id="path34" /><path
       style="fill:#ffd42a;fill-opacity:1;stroke:#303030;stroke-width:0.165;stroke-linejoin:round;stroke-dasharray:none;paint-order:markers stroke fill"
       d="m 144.03255,95.94453 v 6.68073 h 5.52318 v -6.779949 z"
       id="path35" /><path
       style="fill:#ffd42a;fill-opacity:1;stroke:#303030;stroke-width:0.165;stroke-linejoin:round;stroke-dasharray:none;paint-order:markers stroke fill"
       d="m 402.12369,106.85101 v 6.43118 h 12.34787 v -6.3844 z"
       id="path36" /><path
       style="fill:#4d4d4d;fill-opacity:1;stroke:#303030;stroke-width:0.165;stroke-linejoin:round;stroke-dasharray:none;paint-order:markers stroke fill"
       d="m 407.78906,68.510546 h 11.67474 v 5.076693 h -11.64167 z"
       id="path37" /><path
       style="fill:#ffd42a;fill-opacity:1;stroke:#303030;stroke-width:0.165;stroke-linejoin:round;stroke-dasharray:none;paint-order:markers stroke fill"
       d="m 368.1677,94.654686 v 11.509374 h 16.60261 V 94.853124 Z"
       id="path38" /><path
       style="fill:#ffd42a;fill-opacity:1;stroke:#303030;stroke-width:0.107246;stroke-linejoin:round;stroke-dasharray:none;paint-order:markers stroke fill"
       d="m 815.02119,305.0994 v 11.19295 h 7.21239 v -10.99997 z"
       id="path38-2" /><path
       style="fill:#ffd42a;fill-opacity:1;stroke:#303030;stroke-width:0.107246;stroke-linejoin:round;stroke-dasharray:none;paint-order:markers stroke fill"
       d="m 836.31169,305.04347 v 11.19295 h 7.21239 v -10.99997 z"
       id="path38-2-0" /><path
       style="fill:#ffd42a;fill-opacity:1;stroke:#303030;stroke-width:0.0879981;stroke-linejoin:round;stroke-dasharray:none;paint-order:markers stroke fill"
       d="m 974.60364,247.0987 v 4.53146 h 11.99413 v -4.45334 z"
       id="path38-2-6" /><path
       style="fill:#ff0000;fill-opacity:1;stroke:#303030;stroke-width:0.165;stroke-linejoin:round;stroke-dasharray:none;paint-order:markers stroke fill"
       d="m 345.54583,255.5875 h 88.10625 v 63.5 h -87.84167 z"
       id="path39" /><path
       style="fill:#006680;fill-opacity:1;stroke:#303030;stroke-width:0.165;stroke-linejoin:round;stroke-dasharray:none;paint-order:markers stroke fill"
       d="m 505.08958,51.858333 h 88.10625 V 209.28541 h -88.63542 z"
       id="path40" /><path
       style="fill:#006680;fill-opacity:1;stroke:#303030;stroke-width:0.165;stroke-linejoin:round;stroke-dasharray:none;paint-order:markers stroke fill"
       d="m 504.48458,210.07719 h 88.58649 v 59.51759 h -88.86711 z"
       id="path41" /><path
       style="fill:#006680;fill-opacity:1;stroke:#303030;stroke-width:0.165;stroke-linejoin:round;stroke-dasharray:none;paint-order:markers stroke fill"
       d="m 505.35416,305.32916 h 47.88958 v 24.20938 h -48.15416 z"
       id="path42" /><path
       style="fill:#006680;fill-opacity:1;stroke:#303030;stroke-width:0.165;stroke-linejoin:round;stroke-dasharray:none;paint-order:markers stroke fill"
       d="m 554.03749,271.06562 h 38.49688 v 35.05729 H 553.9052 Z"
       id="path43" /><path
       style="fill:#006680;fill-opacity:1;stroke:#303030;stroke-width:0.165;stroke-linejoin:round;stroke-dasharray:none;paint-order:markers stroke fill"
       d="m 553.77291,306.51979 h 38.89375 v 23.21719 h -38.8276 z"
       id="path44" /><path
       style="fill:#006680;fill-opacity:1;stroke:#303030;stroke-width:0.165;stroke-linejoin:round;stroke-dasharray:none;paint-order:markers stroke fill"
       d="m 635.39687,52.255208 h 61.51562 V 96.17604 h -61.51562 z"
       id="path45" /><path
       style="fill:#006680;fill-opacity:1;stroke:#303030;stroke-width:0.165;stroke-linejoin:round;stroke-dasharray:none;paint-order:markers stroke fill"
       d="m 635.39687,96.837499 h 61.46165 V 123.38498 H 684.9316 v 7.95126 h -49.40244 z"
       id="path46" /><path
       style="fill:#006680;fill-opacity:1;stroke:#303030;stroke-width:0.165;stroke-linejoin:round;stroke-dasharray:none;paint-order:markers stroke fill"
       d="m 635.51262,131.81211 h 49.42748 v 25.61497 h -49.49344 z"
       id="path47" /><path
       style="fill:#006680;fill-opacity:1;stroke:#303030;stroke-width:0.165;stroke-linejoin:round;stroke-dasharray:none;paint-order:markers stroke fill"
       d="m 635.39687,157.65859 h 49.55812 v 106.60415 h -12.18414 v -19.45722 h -8.13837 v -32.21281 h -29.3679 z"
       id="path48" /><path
       style="fill:#006680;fill-opacity:1;stroke:#303030;stroke-width:0.165;stroke-linejoin:round;stroke-dasharray:none;paint-order:markers stroke fill"
       d="m 635.22449,212.82505 h 29.15253 v 31.99721 h -29.24474 z"
       id="path49" /><path
       style="fill:#006680;fill-opacity:1;stroke:#303030;stroke-width:0.165;stroke-linejoin:round;stroke-dasharray:none;paint-order:markers stroke fill"
       d="m 635.09921,244.96282 h 29.29649 v 19.389 h -29.42878 z"
       id="path50" /><path
       style="fill:#006680;fill-opacity:1;stroke:#303030;stroke-width:0.165;stroke-linejoin:round;stroke-dasharray:none;paint-order:markers stroke fill"
       d="m 634.97893,264.71877 h 49.98776 v 49.34164 h -49.83441 z"
       id="path51" /><path
       style="fill:#006680;fill-opacity:1;stroke:#303030;stroke-width:0.165;stroke-linejoin:round;stroke-dasharray:none;paint-order:markers stroke fill"
       d="m 634.93385,314.25885 h 28.70729 v 18.52083 h -28.70729 z"
       id="path52" /><path
       style="fill:#006680;fill-opacity:1;stroke:#303030;stroke-width:0.165;stroke-linejoin:round;stroke-dasharray:none;paint-order:markers stroke fill"
       d="m 663.84905,314.23295 h 21.14103 v 18.57441 h -21.03872 z"
       id="path53" /><path
       style="fill:#ffd42a;fill-opacity:1;stroke:#303030;stroke-width:0.165;stroke-linejoin:round;stroke-dasharray:none;paint-order:markers stroke fill"
       d="m 653.26685,305.56258 h 5.33202 v 8.2319 h -5.32609 z"
       id="path54" /><path
       style="fill:#006680;fill-opacity:1;stroke:#303030;stroke-width:0.165;stroke-linejoin:round;stroke-dasharray:none;paint-order:markers stroke fill"
       d="m 725.55364,245.26875 h 32.74218 V 316.25 h -32.57888 v -70.98125 z"
       id="path55" /><path
       style="fill:#006680;fill-opacity:1;stroke:#303030;stroke-width:0.153901;stroke-linejoin:round;stroke-dasharray:none;paint-order:markers stroke fill"
       d="m 726.09247,153.27068 h 32.75324 v 61.73197 h -32.58989 v -61.73197 z"
       id="path55-1" /><path
       style="fill:#006680;fill-opacity:1;stroke:#303030;stroke-width:0.0870952;stroke-linejoin:round;stroke-dasharray:none;paint-order:markers stroke fill"
       d="m 726.12539,215.34814 h 32.81982 v 19.73022 h -32.65614 v -19.73022 z"
       id="path55-1-4" /><path
       style="fill:#006680;fill-opacity:1;stroke:#303030;stroke-width:0.165;stroke-linejoin:round;stroke-dasharray:none;paint-order:markers stroke fill"
       d="m 749.43228,73.736067 h 75.06748 V 114.31117 H 749.43022 V 73.736067 Z"
       id="path56" /><path
       style="fill:#006680;fill-opacity:1;stroke:#303030;stroke-width:0.102097;stroke-linejoin:round;stroke-dasharray:none;paint-order:markers stroke fill"
       d="m 824.6878,73.700299 h 28.69728 V 114.3383 H 824.68701 V 73.700299 Z"
       id="path56-6" /><path
       style="fill:#006680;fill-opacity:1;stroke:#303030;stroke-width:0.112371;stroke-linejoin:round;stroke-dasharray:none;paint-order:markers stroke fill"
       d="m 853.51401,73.703108 h 34.77226 V 114.33083 H 853.51306 V 73.703108 Z"
       id="path56-6-3" /><path
       style="fill:#006680;fill-opacity:1;stroke:#303030;stroke-width:0.124237;stroke-linejoin:round;stroke-dasharray:none;paint-order:markers stroke fill"
       d="m 909.59648,73.691774 h 34.7604 V 123.36962 H 909.59553 V 73.691774 Z"
       id="path56-6-3-3" /><path
       style="fill:#006680;fill-opacity:1;stroke:#303030;stroke-width:0.0906985;stroke-linejoin:round;stroke-dasharray:none;paint-order:markers stroke fill"
       d="M 969.28418,139.61068 H 998.059 v 31.98431 h -28.77561 v -31.98431 z"
       id="path56-6-3-3-0" /><path
       style="fill:#006680;fill-opacity:1;stroke:#303030;stroke-width:0.124053;stroke-linejoin:round;stroke-dasharray:none;paint-order:markers stroke fill"
       d="m 969.29759,171.76849 h 47.36801 v 36.34753 h -47.36931 v -36.34753 z"
       id="path56-6-3-3-0-6" /><path
       style="fill:#006680;fill-opacity:1;stroke:#303030;stroke-width:0.0926004;stroke-linejoin:round;stroke-dasharray:none;paint-order:markers stroke fill"
       d="m 969.28873,208.30026 h 47.39947 v 20.2394 h -47.40077 v -20.2394 z"
       id="path56-6-3-3-0-6-1" /><path
       style="fill:#006680;fill-opacity:1;stroke:#303030;stroke-width:0.0879593;stroke-linejoin:round;stroke-dasharray:none;paint-order:markers stroke fill"
       d="m 969.28636,228.66052 h 47.40404 v 18.25967 h -47.40534 v -18.25967 z"
       id="path56-6-3-3-0-6-1-8" /><path
       style="fill:#006680;fill-opacity:1;stroke:#303030;stroke-width:0.173401;stroke-linejoin:round;stroke-dasharray:none;paint-order:markers stroke fill"
       d="m 969.3907,260.20138 h 47.3187 v 71.0909 h -47.32 v -71.0909 z"
       id="path56-6-3-3-0-6-1-8-5" /><path
       style="fill:#006680;fill-opacity:1;stroke:#303030;stroke-width:0.166554;stroke-linejoin:round;stroke-dasharray:none;paint-order:markers stroke fill"
       d="m 887.31664,244.94781 h 43.48919 v 71.36233 h -43.49039 v -71.36233 z"
       id="path56-6-3-3-0-6-1-8-5-3" /><path
       style="fill:#006680;fill-opacity:1;stroke:#303030;stroke-width:0.0418889;stroke-linejoin:round;stroke-dasharray:none;paint-order:markers stroke fill"
       d="m 1001.6336,247.0892 h 15.1314 v 12.97372 h -15.1318 V 247.0892 Z"
       id="path56-6-3-3-0-6-1-8-7" /><path
       style="fill:#006680;fill-opacity:1;stroke:#303030;stroke-width:0.0415572;stroke-linejoin:round;stroke-dasharray:none;paint-order:markers stroke fill"
       d="m 998.15885,139.57852 h 18.53435 v 10.42471 h -18.53486 v -10.42471 z"
       id="path56-6-3-3-0-4" /><path
       style="fill:#006680;fill-opacity:1;stroke:#303030;stroke-width:0.0415572;stroke-linejoin:round;stroke-dasharray:none;paint-order:markers stroke fill"
       d="m 998.15614,150.07276 h 18.53426 v 10.42471 h -18.53476 v -10.42471 z"
       id="path56-6-3-3-0-4-9" /><path
       style="fill:#006680;fill-opacity:1;stroke:#303030;stroke-width:0.0427876;stroke-linejoin:round;stroke-dasharray:none;paint-order:markers stroke fill"
       d="m 998.15424,160.56561 h 18.53306 v 11.05186 h -18.53356 v -11.05186 z"
       id="path56-6-3-3-0-4-9-1" /><path
       style="fill:#006680;fill-opacity:1;stroke:#303030;stroke-width:0.0874351;stroke-linejoin:round;stroke-dasharray:none;paint-order:markers stroke fill"
       d="m 888.40661,73.684713 h 21.03923 V 114.33737 H 888.40603 V 73.684713 Z"
       id="path56-6-3-6" /><path
       style="fill:#006680;fill-opacity:1;stroke:#303030;stroke-width:0.171504;stroke-linejoin:round;stroke-dasharray:none;paint-order:markers stroke fill"
       d="m 960.65701,53.961532 h 56.13429 V 112.58418 H 960.65556 V 53.961532 Z"
       id="path56-6-3-1" /><path
       style="fill:#006680;fill-opacity:1;stroke:#303030;stroke-width:0.0882361;stroke-linejoin:round;stroke-dasharray:none;paint-order:markers stroke fill"
       d="m 969.10513,112.7946 h 47.70517 v 18.25877 H 969.10396 V 112.7946 Z"
       id="path56-6-3-1-9" /><path
       style="fill:#006680;fill-opacity:1;stroke:#303030;stroke-width:0.0673155;stroke-linejoin:round;stroke-dasharray:none;paint-order:markers stroke fill"
       d="m 884.9682,133.45155 h 25.27597 v 20.05703 h -25.27659 v -20.05703 z"
       id="path56-6-3-1-9-5" /><path
       style="fill:#006680;fill-opacity:1;stroke:#303030;stroke-width:0.0999156;stroke-linejoin:round;stroke-dasharray:none;paint-order:markers stroke fill"
       d="m 897.49799,153.65468 h 34.83429 v 32.06297 h -34.83514 v -32.06297 z"
       id="path56-6-3-1-9-5-3" /><path
       style="fill:#006680;fill-opacity:1;stroke:#303030;stroke-width:0.0758419;stroke-linejoin:round;stroke-dasharray:none;paint-order:markers stroke fill"
       d="m 897.57157,196.35875 h 34.85837 v 18.46101 h -34.85922 v -18.46101 z"
       id="path56-6-3-1-9-5-3-7" /><path
       style="fill:#006680;fill-opacity:1;stroke:#303030;stroke-width:0.0801263;stroke-linejoin:round;stroke-dasharray:none;paint-order:markers stroke fill"
       d="m 897.58139,214.99648 h 34.85409 v 20.60825 h -34.85494 v -20.60825 z"
       id="path56-6-3-1-9-5-3-7-7" /><path
       style="fill:#006680;fill-opacity:1;stroke:#303030;stroke-width:0.10897;stroke-linejoin:round;stroke-dasharray:none;paint-order:markers stroke fill"
       d="m 802.22925,236.69332 h 50.54032 v 26.28561 h -50.54155 v -26.28561 z"
       id="path56-6-3-1-9-5-3-7-7-5" /><path
       style="fill:#006680;fill-opacity:1;stroke:#303030;stroke-width:0.0814005;stroke-linejoin:round;stroke-dasharray:none;paint-order:markers stroke fill"
       d="m 810.00899,263.35934 h 33.82386 v 21.91659 h -33.82468 v -21.91659 z"
       id="path56-6-3-1-9-5-3-7-7-5-4" /><path
       style="fill:#006680;fill-opacity:1;stroke:#303030;stroke-width:0.108709;stroke-linejoin:round;stroke-dasharray:none;paint-order:markers stroke fill"
       d="m 843.91687,285.38082 h 42.75491 v 30.92346 h -42.75595 v -30.92346 z"
       id="path56-6-3-1-9-5-3-7-7-5-4-2" /><path
       style="fill:#006680;fill-opacity:1;stroke:#303030;stroke-width:0.165;stroke-linejoin:round;stroke-dasharray:none;paint-order:markers stroke fill"
       d="m 809.93299,285.34693 h -42.77593 v 21.01077 h 16.83801 v 9.91569 h 30.68254 v -30.92855 z"
       id="path57" /><path
       style="fill:#006680;fill-opacity:1;stroke:#303030;stroke-width:0.165;stroke-linejoin:round;stroke-dasharray:none;paint-order:markers stroke fill"
       d="m 767.09322,306.53632 h 16.68116 v 9.78131 h -16.75763 z"
       id="path58" /><path
       style="fill:#006680;fill-opacity:1;stroke:#303030;stroke-width:0.165;stroke-linejoin:round;stroke-dasharray:none;paint-order:markers stroke fill"
       d="m 758.99036,152.99531 v -21.56354 h 11.44322 v 8.3013 h 19.97605 v 13.46068 z"
       id="path59" /><path
       style="fill:#006680;fill-opacity:1;stroke:#303030;stroke-width:0.313104;stroke-linejoin:round;stroke-dasharray:none;paint-order:markers stroke fill"
       d="m 1043.8443,129.13703 h 209.9417 v 52.24232 h -209.9474 v -52.24232 z"
       id="path56-6-3-3-0-6-1-8-5-4" /><path
       style="fill:#006680;fill-opacity:1;stroke:#303030;stroke-width:0.32187;stroke-linejoin:round;stroke-dasharray:none;paint-order:markers stroke fill"
       d="m 1254.1755,106.54491 h 220.7805 v 52.49815 h -220.7865 v -52.49815 z"
       id="path56-6-3-3-0-6-1-8-5-4-2" /><path
       style="fill:#006680;fill-opacity:1;stroke:#303030;stroke-width:0.496491;stroke-linejoin:round;stroke-dasharray:none;paint-order:markers stroke fill"
       d="m 1042.1831,201.86075 h 211.2518 V 332.40748 H 1042.1774 V 201.86075 Z"
       id="path56-6-3-3-0-6-1-8-5-4-2-4" /><path
       style="fill:#006680;fill-opacity:1;stroke:#303030;stroke-width:0.165671;stroke-linejoin:round;stroke-dasharray:none;paint-order:markers stroke fill"
       d="m 1478.2267,201.08367 h -218.2806 v 130.70349 h 191.5577 z"
       id="path60" /><path
       style="fill:#006680;fill-opacity:1;stroke:#303030;stroke-width:0.165;stroke-linejoin:round;stroke-dasharray:none;paint-order:markers stroke fill"
       d="m 530.02219,356.59099 h 152.47726 v 25.25697 H 530.02219 Z"
       id="path61" /><path
       style="fill:#7137c8;fill-opacity:1;stroke:#303030;stroke-width:0.165;stroke-linejoin:round;stroke-dasharray:none;paint-order:markers stroke fill"
       d="m 769.49569,373.24188 h 61.08443 v 9.44798 h -61.08443 z"
       id="path62" /><path
       style="fill:#7137c8;fill-opacity:1;stroke:#303030;stroke-width:0.165;stroke-linejoin:round;stroke-dasharray:none;paint-order:markers stroke fill"
       d="m 988.83041,368.91166 h 61.08439 v 9.44798 h -61.08439 z"
       id="path62-5" /><path
       style="fill:#7137c8;fill-opacity:1;stroke:#303030;stroke-width:0.165;stroke-linejoin:round;stroke-dasharray:none;paint-order:markers stroke fill"
       d="m 1489.0438,228.82388 0.1339,-61.08425 9.4479,0.0207 -0.1339,61.08425 z"
       id="path62-6" /><path
       style="fill:#7137c8;fill-opacity:1;stroke:#303030;stroke-width:0.165;stroke-linejoin:round;stroke-dasharray:none;paint-order:markers stroke fill"
       d="m 429.76582,12.51791 h 61.08443 v 9.44798 h -61.08443 z"
       id="path62-4" /><path
       style="fill:#7137c8;fill-opacity:1;stroke:#303030;stroke-width:0.165;stroke-linejoin:round;stroke-dasharray:none;paint-order:markers stroke fill"
       d="M 414.68457,321.81582 H 475.769 v 9.44798 h -61.08443 z"
       id="path62-8" /></g><path
     style="fill:#00d455;fill-opacity:1;stroke:#303030;stroke-width:0.165;stroke-linejoin:round;stroke-dasharray:none;paint-order:markers stroke fill"
     d="m 1475.9781,172.64062 v -12.43541 h -220.7948 v 22.48958 H 1035.976 1017.8521 V 333.375 h -50.04242 v -73.95104 h 33.44212 v -11.95243 h -14.48827 v 4.4118 H 974.4108 v -4.71289 h -5.45704 V 139.28751 h 47.66264 v -8.04481 h -15.809 v 7.60632 h -12.87402 v -7.54785 h -19.14149 v -18.53906 h -8.13837 v 10.99704 h -51.41291 v -9.19073 H 749.26692 v 9.22351 H 716.02864 V 34.660416 H 498.73958 388.86378 V 107.15625 H 150.08489 v -4.34496 h -6.26048 v -5.072554 h -9.51813 l -97.823991,47.535614 2.525697,5.14494 15.02556,-7.7291 0.35079,0.5028 38.385194,-18.97112 32.27917,-15.51119 6.66172,12.1486 h 40.9302 v 38.1553 l -18.45468,18.45469 3.49171,6.04783 24.62754,-24.62754 v -42.10909 h 69.08205 V 228.7159 h 36.63577 V 115.35833 h 54.28167 v 111.39313 h 47.68165 V 113.18864 h 11.92689 v -6.61826 h 12.755 v 6.78781 h 26.90487 V 316.9282 h 58.32782 V 50.006249 h 93.91851 V 329.65022 h 40.03699 V 316.36694 H 609.34779 V 173.61828 H 593.8516 V 51.946338 h 103.39162 v 71.713292 h -12.10469 v 86.81641 115.75981 h 39.92359 V 316.0863 h -30.68254 v -34.30505 h 30.04958 v -10.84792 h -29.89792 v -95.77917 h 29.63333 v -9.65729 h -29.10416 v -32.41146 h 63.43385 v -2.48046 -1.45521 -5.10996 h 26.52977 v 5.54251 h 5.7494 v 23.83042 h -31.55156 v 162.86068 h 7.56102 v -31.22041 h 42.79654 V 263.3273 h -7.95126 v -26.95246 h 51.4877 v 26.75368 h -9.1355 v 21.97121 h 43.00699 v -40.4813 h 43.98216 v 71.9356 H 725.06506 v 9.68341 h 87.80108 v 15.53808 h 31.41927 V 325.3052 h 110.06666 v 18.12396 h 81.37073 V 194.19804 h 226.5644 v -22.26356 z"
     id="path63" /></svg>
